# xmcd
#
# Track frame offsets:
#	150
#	117267
#	146785
#
# Disc length: 2697
#
# Revision: 1
# Processed by: cddbd v1.5.1PL0 Copyright (c) Steve Scherf et al.
# Submitted via: CDex 1.51
# Normalized: r0:TRMNUM
#
DISCID=270a8703
DTITLE=Miles Davis - Agharta
DYEAR=1976
DGENRE=Jazz
TTITLE0=Prelude Part 1
TTITLE1=Prelude Part 2
TTITLE2=Maiysha
EXTD=YEAR: 1976
EXTT0=
EXTT1=
EXTT2=
PLAYORDER=
